:FULLY-SPECIFIED
:FORCE-ALL-JOINTS-BE-3DOF
:DEGREES
1937
root 5.75472 13.7085 27.9971 1042.71 73.4335 319.745
lfemur -60.3747 -0.362049 -0.552126
ltibia 53.337 0 0
lfoot 3.74511 -3.37884 0
ltoes -31.1028 0 0
rfemur -6.01091 4.84208 18.6518
rtibia 68.8939 0 0
rfoot -22.7317 -23.7265 0
rtoes -30.0782 0 0
lowerback 13.9054 4.70464 3.51522
upperback -0.307218 7.17785 3.26349
thorax -8.10589 3.43092 0.0262161
lowerneck -0.940975 15.8304 6.41866
upperneck 6.09671 21.5939 -7.24475
head 3.72738 10.7052 -2.33411
lclavicle 9.97952e-14 -4.27958e-14 0
lhumerus 76.1683 -37.3524 31.5391
lradius 68.3245 0 0
lwrist 34.4371 0 0
lhand -3.61909 32.2161 0
lfingers 7.12502 0 0
lthumb 22.1316 61.1916 0
rclavicle 9.97952e-14 -4.27958e-14 0
rhumerus -25.269 34.9607 -71.4071
rradius 87.0837 0 0
rwrist -25.1429 0 0
rhand -14.7902 -406.666 0
rfingers 7.12502 0 0
rthumb 11.3662 283.683 0
1938
root 5.61407 13.7306 28.0343 1040.54 74.7516 317.548
lfemur -60.0561 -1.83842 0.206034
ltibia 50.1702 0 0
lfoot 4.63713 -4.21654 0
ltoes -30.6528 0 0
rfemur -6.35473 6.27789 19.0893
rtibia 69.3389 0 0
rfoot -22.5311 -23.3569 0
rtoes -31.0394 0 0
lowerback 13.9611 4.73281 3.39264
upperback -0.306388 7.19272 3.21216
thorax -8.1418 3.4395 0.0295224
lowerneck -0.953265 15.8469 6.46028
upperneck 6.1097 21.6169 -7.27689
head 3.72026 10.7139 -2.32792
lclavicle 1.00335e-13 -4.21976e-14 0
lhumerus 78.2646 -38.3118 28.9409
lradius 71.9034 0 0
lwrist 37.3186 0 0
lhand -3.54207 32.4321 0
lfingers 7.12502 0 0
lthumb 22.2065 61.4186 0
rclavicle 1.00335e-13 -4.21976e-14 0
rhumerus -23.0875 36.331 -70.5044
rradius 86.7159 0 0
rwrist -24.3303 0 0
rhand -14.5708 -406.664 0
rfingers 7.12502 0 0
rthumb 11.578 283.694 0
1939
root 5.47343 13.7528 28.0715 1038.76 76.0096 315.742
lfemur -59.7342 -3.19665 1.02473
ltibia 47.1116 0 0
lfoot 5.46934 -5.08216 0
ltoes -30.1782 0 0
rfemur -6.56999 7.61205 19.4796
rtibia 69.6198 0 0
rfoot -22.3419 -23.0129 0
rtoes -31.9922 0 0
lowerback 13.9978 4.7645 3.30426
upperback -0.313437 7.21621 3.16385
thorax -8.17169 3.45092 0.0167956
lowerneck -0.960486 15.8666 6.50989
upperneck 6.13593 21.6438 -7.29512
head 3.71691 10.7249 -2.31863
lclavicle 9.98117e-14 -4.17877e-14 0
lhumerus 80.232 -38.9263 26.8897
lradius 74.9271 0 0
lwrist 39.4295 0 0
lhand -3.63248 32.6565 0
lfingers 7.12502 0 0
lthumb 22.1199 61.6598 0
rclavicle 9.98117e-14 -4.17877e-14 0
rhumerus -21.2196 37.5248 -69.7239
rradius 86.4711 0 0
rwrist -23.7182 0 0
rhand -14.3548 -406.584 0
rfingers 7.12502 0 0
rthumb 11.7868 283.782 0
1940
root 5.33278 13.775 28.1087 1037.27 77.1987 314.213
lfemur -59.4147 -4.43722 1.87348
ltibia 44.179 0 0
lfoot 6.23568 -5.9574 0
ltoes -29.6872 0 0
rfemur -6.68137 8.84132 19.8318
rtibia 69.7552 0 0
rfoot -22.1709 -22.6986 0
rtoes -32.9282 0 0
lowerback 14.0184 4.79637 3.24811
upperback -0.327379 7.24406 3.11931
thorax -8.19667 3.46327 -0.00937644
lowerneck -0.963768 15.887 6.56568
upperneck 6.17111 21.6714 -7.30245
head 3.71606 10.7366 -2.30733
lclavicle 9.83229e-14 -4.14945e-14 0
lhumerus 82.0746 -39.2419 25.319
lradius 77.4792 0 0
lwrist 40.8416 0 0
lhand -3.8754 32.8891 0
lfingers 7.12502 0 0
lthumb 21.8862 61.9147 0
rclavicle 9.83229e-14 -4.14945e-14 0
rhumerus -19.6476 38.5624 -69.0611
rradius 86.3453 0 0
rwrist -23.3038 0 0
rhand -14.1332 -406.432 0
rfingers 7.12502 0 0
rthumb 12.0009 283.941 0
